# 3ds Max Wavefront OBJ Exporter v0.97b - (c)2007 guruware
# File Created: 03.04.2019 17:19:20

mtllib table_chevet.mtl

#
# object Box001
#

v  2.8814 35.0545 9.6060
v  2.8814 33.5767 9.6060
v  2.8814 26.8900 9.6060
v  2.8814 25.0136 9.6060
v  2.8814 18.2021 9.6060
v  2.8814 17.6391 9.6060
v  2.8814 16.8281 9.6060
v  3.2354 16.8296 9.6060
v  3.2354 35.0545 9.6060
v  -18.5306 35.0545 9.6060
v  3.2354 36.3947 9.6060
v  -18.5306 36.3947 9.6060
v  -18.5306 26.8900 9.6060
v  -18.5306 33.5767 9.6060
v  -18.5306 33.4532 8.5861
v  2.8814 33.4532 8.5861
v  2.8814 35.0545 8.5861
v  -18.5306 35.0545 8.5861
v  -18.5306 25.0136 9.6060
v  -18.5306 18.2021 9.6060
v  -18.5306 24.8901 8.5861
v  2.8814 24.8901 8.5861
v  2.8814 26.8900 8.5861
v  -18.5306 26.8900 8.5861
v  3.2354 36.3947 -10.5509
v  -20.9660 36.3947 -10.5509
v  -20.9660 36.3947 6.5805
v  -20.9416 36.3947 7.1553
v  -20.8686 36.3947 7.6697
v  -20.7468 36.3947 8.1235
v  -20.5763 36.3947 8.5168
v  -20.3571 36.3947 8.8496
v  -20.0893 36.3947 9.1219
v  -19.7726 36.3947 9.3337
v  -19.4073 36.3947 9.4850
v  -18.9933 36.3947 9.5757
v  -18.5306 18.2021 8.5861
v  2.8814 17.9544 8.5861
v  3.7157 36.3947 9.5520
v  4.1396 36.3947 9.3899
v  4.5069 36.3947 9.1198
v  4.8177 36.3947 8.7416
v  5.0720 36.3947 8.2554
v  5.2698 36.3947 7.6612
v  5.4111 36.3947 6.9589
v  5.4959 36.3947 6.1486
v  5.5241 36.3947 5.2302
v  5.5241 36.3947 -10.5509
v  3.2354 18.1973 9.6060
v  5.4959 16.8281 6.1486
v  5.5241 16.8281 5.2302
v  5.4111 16.8281 6.9589
v  5.2698 16.8281 7.6612
v  5.0720 16.8281 8.2554
v  4.8177 16.8281 8.7416
v  4.5069 16.8281 9.1198
v  4.1396 16.8281 9.3899
v  3.7157 16.8281 9.5520
v  3.2354 16.8293 9.6060
v  3.2354 16.8281 9.6060
v  -20.9660 16.8281 6.5805
v  -20.9660 16.8281 -10.5509
v  3.2354 16.8281 -10.5509
v  -18.5306 16.8281 9.6060
v  -18.9933 16.8281 9.5757
v  -19.4073 16.8281 9.4850
v  -19.7726 16.8281 9.3337
v  -20.0893 16.8281 9.1219
v  -20.3571 16.8281 8.8496
v  -20.5763 16.8281 8.5168
v  -20.7468 16.8281 8.1235
v  -20.8686 16.8281 7.6697
v  -20.9416 16.8281 7.1553
v  5.5241 16.8281 -10.5509
v  2.8814 16.8296 9.6027
v  -18.5306 16.8407 8.5764
v  2.8814 16.8676 8.5881
# 77 vertices

vn -0.3015 -0.3015 0.9045
vn -0.3333 0.3073 0.8914
vn -0.3333 0.3072 0.8914
vn -0.2435 -0.2790 0.9289
vn -0.0013 0.0000 1.0000
vn -0.7649 -0.4474 0.4635
vn -0.0000 0.0000 1.0000
vn 0.2725 -0.3045 0.9127
vn -0.0000 0.7071 0.7071
vn -0.0187 0.7012 0.7127
vn 0.3041 0.3107 0.9005
vn 0.5713 0.6143 0.5444
vn -0.5713 0.6143 0.5444
vn -0.5774 -0.5774 0.5774
vn 0.5774 -0.5773 0.5774
vn -0.5712 0.6143 0.5443
vn 0.0000 0.7071 -0.7071
vn -0.5774 0.5774 -0.5774
vn -0.7126 0.7013 0.0187
vn -0.7156 0.6937 0.0817
vn -0.7008 0.6909 0.1776
vn -0.6660 0.6883 0.2877
vn -0.6045 0.6862 0.4046
vn -0.5149 0.6854 0.5149
vn -0.4046 0.6862 0.6045
vn -0.2877 0.6883 0.6660
vn -0.1776 0.6909 0.7008
vn -0.0817 0.6936 0.7157
vn 0.5753 -0.5821 0.5746
vn -0.5929 -0.4953 0.6349
vn 0.0324 0.6971 0.7163
vn 0.1409 0.6844 0.7153
vn 0.2961 0.6816 0.6692
vn 0.4459 0.6811 0.5808
vn 0.5650 0.6833 0.4625
vn 0.6432 0.6870 0.3382
vn 0.6866 0.6909 0.2264
vn 0.7071 0.6943 0.1338
vn 0.7146 0.6970 0.0600
vn 0.7112 0.7028 0.0136
vn 0.5774 0.5774 -0.5774
vn 0.0451 0.0000 0.9990
vn 0.7146 -0.6970 0.0600
vn 0.7112 -0.7028 0.0136
vn 0.7071 -0.6943 0.1338
vn 0.6866 -0.6909 0.2264
vn 0.6432 -0.6870 0.3382
vn 0.5650 -0.6833 0.4625
vn 0.4459 -0.6811 0.5808
vn 0.2961 -0.6816 0.6692
vn 0.1409 -0.6847 0.7151
vn 0.0301 0.0000 0.9995
vn -0.0000 -1.0000 0.0001
vn -0.7126 -0.7013 0.0187
vn -0.5774 -0.5774 -0.5774
vn 0.0000 -0.7071 -0.7071
vn 0.5577 -0.5737 0.5999
vn -0.0817 -0.6936 0.7157
vn -0.1776 -0.6909 0.7008
vn -0.2877 -0.6883 0.6660
vn -0.4046 -0.6862 0.6045
vn -0.5149 -0.6854 0.5149
vn -0.6045 -0.6862 0.4046
vn -0.6660 -0.6883 0.2877
vn -0.7008 -0.6909 0.1776
vn -0.7157 -0.6936 0.0817
vn 0.5774 -0.5774 -0.5774
vn -1.0000 0.0000 -0.0000
vn 0.5772 0.5719 0.5828
vn -0.5799 0.5652 0.5867
# 70 vertex normals

vt 0.5101 0.9632 0.0000
vt 0.5101 0.9226 0.0000
vt 0.5101 0.7388 0.0000
vt 0.5101 0.6873 0.0000
vt 0.5101 0.5001 0.0000
vt 0.5101 0.4835 0.0000
vt 0.5101 0.4595 0.0000
vt 0.5028 0.4595 0.0000
vt 0.5028 0.9632 0.0000
vt 0.9500 0.9632 0.0000
vt 0.5028 1.0000 0.0000
vt 0.9500 1.0000 0.0000
vt 0.9500 0.7388 0.0000
vt 0.9500 0.9226 0.0000
vt 0.9500 0.6873 0.0000
vt 0.9500 0.5001 0.0000
vt 1.0000 0.5028 0.0000
vt 0.0000 0.5028 0.0000
vt 0.0000 1.0000 0.0000
vt 0.8499 1.0000 0.0000
vt 0.8784 0.9995 0.0000
vt 0.9039 0.9980 0.0000
vt 0.9265 0.9955 0.0000
vt 0.9460 0.9920 0.0000
vt 0.9625 0.9875 0.0000
vt 0.9760 0.9820 0.0000
vt 0.9865 0.9755 0.0000
vt 0.9940 0.9680 0.0000
vt 0.9985 0.9595 0.0000
vt 1.0000 0.9500 0.0000
vt 0.4972 1.0000 0.0000
vt 0.5027 1.0000 0.0000
vt 0.5026 1.0000 0.0000
vt 0.5024 1.0000 0.0000
vt 0.5023 1.0000 0.0000
vt 0.5021 1.0000 0.0000
vt 0.5018 1.0000 0.0000
vt 0.5016 1.0000 0.0000
vt 0.2514 0.7514 0.0000
vt 0.2767 0.6846 0.0000
vt 0.2888 0.6722 0.0000
vt 0.2660 0.6956 0.0000
vt 0.2567 0.7050 0.0000
vt 0.2489 0.7130 0.0000
vt 0.2424 0.7196 0.0000
vt 0.2374 0.7247 0.0000
vt 0.2339 0.7283 0.0000
vt 0.2317 0.7305 0.0000
vt 0.2310 0.7312 0.0000
vt 0.1501 0.4595 0.0000
vt 0.1501 1.0000 0.0000
vt 1.0000 1.0000 0.0000
vt 1.0000 0.4595 0.0000
vt 0.0000 0.4595 0.0000
vt 0.4972 0.4595 0.0000
vt -0.0376 0.4595 0.0000
vt -0.0376 0.5001 0.0000
vt -0.0376 0.6873 0.0000
vt -0.0376 0.7388 0.0000
vt -0.0376 0.9226 0.0000
vt -0.0376 0.9632 0.0000
vt -0.0376 1.0000 0.0000
vt -0.0188 1.0000 0.0000
vt -0.0188 0.4595 0.0000
vt -0.0001 1.0000 0.0000
vt -0.0001 0.4595 0.0000
vt 0.0187 1.0000 0.0000
vt 0.0187 0.4595 0.0000
vt 0.0375 1.0000 0.0000
vt 0.0375 0.4595 0.0000
vt 0.0563 1.0000 0.0000
vt 0.0563 0.4595 0.0000
vt 0.0750 1.0000 0.0000
vt 0.0750 0.4595 0.0000
vt 0.0938 1.0000 0.0000
vt 0.0938 0.4595 0.0000
vt 0.1126 1.0000 0.0000
vt 0.1126 0.4595 0.0000
vt 0.1313 1.0000 0.0000
vt 0.1313 0.4595 0.0000
vt 0.9500 0.4595 0.0000
vt 0.5101 0.4826 0.0000
vt 0.4873 0.4811 0.0000
vt 0.5101 0.4717 0.0000
# 84 texture coords

o Box001
g Box001
usemtl wire_225143087
s 1
f 1/1/1 2/2/2 3/3/1 4/4/3 5/5/4 6/6/5 7/7/6 8/8/7 9/9/7 
f 10/10/8 1/1/1 9/9/7 11/11/9 12/12/10 
f 13/13/8 3/3/1 2/2/2 14/14/11 
f 15/14/12 16/2/13 17/1/14 18/10/15 
f 4/4/3 19/15/11 20/16/8 5/5/4 
f 21/15/12 22/4/16 23/3/14 24/13/15 
s 4
f 11/17/9 25/18/17 26/19/18 27/20/19 28/21/20 29/22/21 30/23/22 31/24/23 32/25/24 33/26/25 34/27/26 35/28/27 36/29/28 12/30/10 
s 2
f 2/2/2 1/1/1 17/1/14 16/2/13 
s 4
f 1/1/1 10/10/8 18/10/15 17/1/14 
s 2
f 10/10/8 14/14/11 15/14/12 18/10/15 
s 4
f 14/14/11 2/2/2 16/2/13 15/14/12 
s 2
f 4/4/3 3/3/1 23/3/14 22/4/16 
s 4
f 3/3/1 13/13/8 24/13/15 23/3/14 
s 2
f 13/13/8 19/15/11 21/15/12 24/13/15 
s 4
f 19/15/11 4/4/3 22/4/16 21/15/12 
f 5/5/4 20/16/8 37/16/29 38/5/30 
f 25/31/17 11/11/9 11/11/31 39/11/32 40/32/33 41/32/34 42/33/35 43/34/36 44/35/37 45/36/38 46/37/39 47/38/40 48/31/41 
s 8
f 11/11/9 49/39/7 49/39/42 11/11/31 
f 47/38/40 46/37/39 50/40/43 51/41/44 
f 46/37/39 45/36/38 52/42/45 50/40/43 
f 45/36/38 44/35/37 53/43/46 52/42/45 
f 44/35/37 43/34/36 54/44/47 53/43/46 
f 43/34/36 42/33/35 55/45/48 54/44/47 
f 42/33/35 41/32/34 56/46/49 55/45/48 
f 41/32/34 40/32/33 57/47/50 56/46/49 
f 40/32/33 39/11/32 58/48/51 57/47/50 
f 39/11/32 11/11/31 49/39/42 59/49/52 58/48/51 
f 49/39/7 60/49/53 59/49/52 49/39/42 
s 1
f 61/50/54 27/51/19 26/52/18 62/53/55 
s 2
f 62/54/55 26/19/18 25/31/17 63/55/56 
s 1
f 64/56/57 20/57/8 19/58/11 13/59/8 14/60/11 10/61/8 12/62/10 36/63/28 65/64/58 
f 65/64/58 36/63/28 35/65/27 66/66/59 
f 66/66/59 35/65/27 34/67/26 67/68/60 
f 67/68/60 34/67/26 33/69/25 68/70/61 
f 68/70/61 33/69/25 32/71/24 69/72/62 
f 69/72/62 32/71/24 31/73/23 70/74/63 
f 70/74/63 31/73/23 30/75/22 71/76/64 
f 71/76/64 30/75/22 29/77/21 72/78/65 
f 72/78/65 29/77/21 28/79/20 73/80/66 
f 73/80/66 28/79/20 27/51/19 61/50/54 
s 8
f 74/55/67 48/31/41 47/38/40 51/41/44 
s 2
f 63/55/56 25/31/17 48/31/41 74/55/67 
s off
f 74/55/67 51/41/44 50/40/43 52/42/45 53/43/46 54/44/47 55/45/48 56/46/49 57/47/50 58/48/51 60/49/53 7/7/6 64/81/57 65/64/58 66/66/59 67/68/60 68/70/61 69/72/62 70/74/63 71/76/64 72/78/65 73/80/66 61/50/54 62/53/55 63/55/56 
f 75/82/68 7/7/6 6/6/5 
f 76/83/69 64/56/57 7/7/6 77/84/70 
f 77/84/70 7/7/6 5/5/4 38/5/30 
f 37/16/29 20/16/8 64/56/57 76/83/69 
f 77/84/70 38/5/30 37/16/29 76/83/69 
# 47 polygons - 1 triangles

